<?xml version="1.0" encoding="UTF-8" standalone="no"?> <svg width="64" height="64" viewBox="0 0 64 64" fill="none" xmlns="http://www.w3.org/2000/svg">
<path d="M47 3H3V61H47V3Z" fill="#E9F1F2"/>
<path d="M47 47V61H3V3H20V29C20 33.7739 21.8964 38.3523 25.2721 41.7279C28.6477 45.1036 33.2261 47 38 47H47Z" fill="#D0D8DA"/>
<path d="M23.609 7L29.222 25.444L43 22V7H23.609Z" fill="#ADE8F4"/>
<path d="M19.609 7H7V31L25.505 26.374L19.609 7Z" fill="#ADE8F4"/>
<path d="M43 27V57H7V36L43 27Z" fill="#ADE8F4"/>
<path d="M20 8.28V27.75L7 31V7H19.61L20 8.28Z" fill="#48CAE4"/>
<path d="M43 47V57H7V36L20.38 32.66C21.2201 36.7119 23.4312 40.3503 26.6407 42.9624C29.8502 45.5744 33.8619 47.0004 38 47H43Z" fill="#48CAE4"/>
<path d="M38.2 20.12C38.1983 20.6391 38.302 21.1532 38.5048 21.631C38.7076 22.1089 39.0054 22.5406 39.38 22.9L29.22 25.44L25.49 13.19C26.2999 13.1526 27.0768 12.8581 27.7079 12.3492C28.3391 11.8403 28.7917 11.1435 29 10.36C29.1723 10.9945 29.5042 11.5743 29.9643 12.0441C30.4243 12.5139 30.997 12.8579 31.6278 13.0434C32.2586 13.229 32.9264 13.2498 33.5675 13.1039C34.2086 12.958 34.8016 12.6502 35.29 12.21C35.1724 12.5889 35.1118 12.9832 35.11 13.38C35.1118 13.9376 35.2348 14.4882 35.4706 14.9935C35.7064 15.4989 36.0492 15.9469 36.4754 16.3065C36.9016 16.6661 37.401 16.9287 37.9388 17.0761C38.4766 17.2234 39.04 17.2521 39.59 17.16C39.1547 17.5206 38.8043 17.9729 38.5641 18.4846C38.3238 18.9963 38.1995 19.5547 38.2 20.12Z" fill="#FFEA00"/>
<path d="M13.09 29.48C13.3202 28.9322 13.4201 28.3385 13.382 27.7455C13.3438 27.1526 13.1685 26.5766 12.87 26.0629C12.5714 25.5492 12.1578 25.1117 11.6615 24.785C11.1652 24.4583 10.5999 24.2512 10.01 24.18C10.6137 23.919 11.1404 23.5076 11.5398 22.985C11.9391 22.4625 12.1978 21.8462 12.2911 21.1952C12.3844 20.5442 12.3092 19.8801 12.0726 19.2664C11.8361 18.6527 11.4461 18.11 10.94 17.69C11.1547 17.7265 11.3723 17.7432 11.59 17.74C12.1919 17.736 12.7845 17.5909 13.3203 17.3165C13.856 17.042 14.3199 16.6458 14.6748 16.1596C15.0298 15.6735 15.2658 15.1109 15.3639 14.517C15.4621 13.9231 15.4196 13.3145 15.24 12.74C15.9389 13.3795 16.8527 13.7329 17.8 13.73C18.4605 13.7319 19.1105 13.5647 19.6882 13.2444C20.2658 12.9241 20.7518 12.4613 21.1 11.9L25.51 26.37L13.09 29.48Z" fill="#FFEA00"/>
<path d="M43 40.5V57H25L20.25 51.91L29 50L19 39L31 43L28 36L37 41L38 33L43 40.5Z" fill="#FFEA00"/>
<path d="M16.911 43.816L12.261 47.3C12.7288 46.6422 12.9867 45.8583 13.0007 45.0512C13.0148 44.2442 12.7843 43.4518 12.3396 42.7781C11.895 42.1044 11.2569 41.5811 10.5093 41.2768C9.76162 40.9725 8.93942 40.9015 8.1507 41.0732C7.36198 41.2448 6.64365 41.6511 6.0901 42.2386C5.53655 42.8261 5.17369 43.5673 5.0492 44.3648C4.92471 45.1623 5.04442 45.9788 5.3926 46.7071C5.74077 47.4353 6.30112 48.0412 7 48.445V57H14V51.857L19.033 46.105C19.2953 45.8055 19.4339 45.4174 19.4207 45.0195C19.4075 44.6216 19.2435 44.2435 18.962 43.962C18.6949 43.6951 18.3404 43.5334 17.9637 43.5065C17.587 43.4797 17.2133 43.5896 16.911 43.816V43.816Z" fill="#FFEA00"/>
<path d="M14 54.98V57H6.99999V48.45C6.17439 47.967 5.54919 47.2042 5.23774 46.2998C4.92629 45.3955 4.94921 44.4095 5.30236 43.5205C5.65551 42.6316 6.31549 41.8987 7.16265 41.4546C8.0098 41.0105 8.98804 40.8847 9.91999 41.1C10.0064 41.116 10.0904 41.1429 10.17 41.18C9.42527 41.4054 8.76281 41.8439 8.26436 42.4413C7.7659 43.0388 7.45326 43.7691 7.365 44.5421C7.27674 45.3152 7.41673 46.0972 7.76769 46.7916C8.11865 47.4861 8.66523 48.0626 9.33999 48.45V50C9.34213 51.2658 9.82425 52.4836 10.6891 53.4079C11.5539 54.3321 12.7371 54.8939 14 54.98V54.98Z" fill="#FFD000"/>
<path d="M34.92 23.63C34.92 23.7572 34.9301 23.8843 34.95 24.01L29.22 25.44L27.22 18.89C27.6061 18.7514 27.953 18.5218 28.2315 18.2206C28.5101 17.9195 28.7119 17.5557 28.82 17.16C28.9343 17.5806 29.1546 17.965 29.4598 18.2762C29.7651 18.5874 30.145 18.8151 30.5634 18.9375C30.9818 19.0599 31.4246 19.0729 31.8494 18.9753C32.2743 18.8777 32.667 18.6727 32.99 18.38C32.9119 18.6327 32.8714 18.8955 32.87 19.16C32.8712 19.5294 32.9528 19.8942 33.1092 20.2289C33.2656 20.5636 33.4931 20.8603 33.7757 21.0982C34.0584 21.3361 34.3894 21.5096 34.7459 21.6066C35.1024 21.7036 35.4758 21.7218 35.84 21.66C35.5521 21.9012 35.3205 22.2026 35.1616 22.543C35.0027 22.8833 34.9202 23.2543 34.92 23.63V23.63Z" fill="#FF7373"/>
<path d="M20 13.05V27.75L13.09 29.48C13.3202 28.9322 13.4201 28.3385 13.382 27.7456C13.3438 27.1526 13.1685 26.5766 12.87 26.0629C12.5714 25.5492 12.1578 25.1118 11.6615 24.785C11.1652 24.4583 10.5999 24.2512 10.01 24.18C10.6137 23.919 11.1404 23.5076 11.5398 22.9851C11.9391 22.4625 12.1978 21.8463 12.2911 21.1952C12.3844 20.5442 12.3092 19.8801 12.0726 19.2664C11.8361 18.6527 11.4461 18.11 10.94 17.69C11.1547 17.7265 11.3723 17.7432 11.59 17.74C12.1919 17.736 12.7845 17.591 13.3203 17.3165C13.856 17.0421 14.3199 16.6458 14.6748 16.1597C15.0298 15.6735 15.2658 15.1109 15.3639 14.517C15.4621 13.9231 15.4196 13.3145 15.24 12.74C15.9389 13.3795 16.8527 13.7329 17.8 13.73C18.5847 13.7275 19.3508 13.4907 20 13.05V13.05Z" fill="#FFD000"/>
<path d="M43 47V57H25L20.25 51.91L29 50L19 39L24.42 40.81C26.1076 42.7549 28.1936 44.3143 30.5366 45.3823C32.8797 46.4503 35.425 47.002 38 47H43Z" fill="#FFD000"/>
<path d="M40 44L43 46V57H34L30 54L35 53L31 47L38 51L36 45L40 48V44Z" fill="#FF7373"/>
<path d="M25.51 26.37L19.19 27.95C19.0792 27.409 18.8015 26.9164 18.3961 26.5415C17.9907 26.1666 17.478 25.9282 16.93 25.86C17.3416 25.6812 17.7005 25.3999 17.9725 25.043C18.2444 24.6861 18.4204 24.2654 18.4836 23.8211C18.5468 23.3769 18.4951 22.9238 18.3334 22.5052C18.1717 22.0866 17.9054 21.7164 17.56 21.43C17.7083 21.4582 17.859 21.4716 18.01 21.47C18.4212 21.4665 18.8259 21.3666 19.1916 21.1786C19.5574 20.9905 19.8739 20.7193 20.116 20.3869C20.358 20.0544 20.5189 19.6698 20.5855 19.264C20.6522 18.8582 20.6229 18.4424 20.5 18.05C20.9754 18.4913 21.6013 18.7345 22.25 18.73C22.5529 18.7298 22.8537 18.6791 23.14 18.58L25.51 26.37Z" fill="#FF7373"/>
<path d="M43 47V57H34L30 54L35 53L31 47L38 51L36.65 46.95C37.1 46.98 37.55 47 38 47H38.67L40 48V47H43Z" fill="#EF5350"/>
<path d="M20 20.53V27.75L19.19 27.95C19.0792 27.409 18.8015 26.9164 18.3961 26.5415C17.9907 26.1666 17.478 25.9282 16.93 25.86C17.3416 25.6812 17.7005 25.3999 17.9725 25.043C18.2444 24.6861 18.4204 24.2654 18.4836 23.8211C18.5468 23.3768 18.4951 22.9238 18.3334 22.5052C18.1717 22.0866 17.9054 21.7164 17.56 21.43C17.7083 21.4582 17.859 21.4716 18.01 21.47C18.3903 21.4683 18.7655 21.3833 19.1094 21.2209C19.4532 21.0585 19.7572 20.8226 20 20.53Z" fill="#EF5350"/>
<path d="M40.517 42.347L41.118 31.593L48.368 34.974L40.517 42.347Z" fill="#FFD000"/>
<path d="M58.69 3.37559C59.6515 3.82393 60.3954 4.63586 60.7583 5.63274C61.1211 6.62963 61.0731 7.72983 60.6247 8.6913L59.7795 10.5039L52.529 7.12297L53.3743 5.31035C53.8226 4.34888 54.6345 3.60489 55.6314 3.24205C56.6283 2.87922 57.7285 2.92725 58.69 3.37559V3.37559Z" fill="#E9F1F2"/>
<path d="M52.5291 7.12339L41.118 31.5935L48.3684 34.9746L59.7795 10.5045L52.5291 7.12339Z" fill="#FF7373"/>
<path d="M45.228 37.923L40.877 35.895L40.517 42.347L45.228 37.923Z" fill="#93999A"/>
<path d="M41.907 36.375L45.228 37.923L48.368 34.974L44.509 33.174C43.678 34.27 42.818 35.343 41.907 36.375Z" fill="#FFB700"/>
<path d="M58.69 3.37598C58.59 3.32898 58.49 3.30598 58.382 3.26898C58.6017 3.78377 58.7105 4.33909 58.7012 4.89874C58.6919 5.45838 58.5647 6.00978 58.328 6.51698L57.06 9.23598L59.779 10.5L60.624 8.68698C61.0709 7.72611 61.1183 6.62716 60.7557 5.63141C60.393 4.63565 59.6501 3.82448 58.69 3.37598V3.37598Z" fill="#D0D8DA"/>
<path d="M50.58 23.132L57.06 9.23199L59.779 10.5L48.368 34.974L44.508 33.174C46.8823 30.0514 48.9178 26.6852 50.58 23.132V23.132Z" fill="#EF5350"/>
<path d="M40.782 37.593L40.517 42.347L45.228 37.923L41.907 36.375C41.541 36.789 41.16 37.19 40.782 37.593Z" fill="#656B76"/>
<path d="M3 23C2.73478 23 2.48043 23.1054 2.29289 23.2929C2.10536 23.4804 2 23.7348 2 24V61C2 61.2652 2.10536 61.5196 2.29289 61.7071C2.48043 61.8946 2.73478 62 3 62H47C47.2652 62 47.5196 61.8946 47.7071 61.7071C47.8946 61.5196 48 61.2652 48 61V41.439C48 41.1738 47.8946 40.9194 47.7071 40.7319C47.5196 40.5444 47.2652 40.439 47 40.439C46.7348 40.439 46.4804 40.5444 46.2929 40.7319C46.1054 40.9194 46 41.1738 46 41.439V60H4V24C4 23.7348 3.89464 23.4804 3.70711 23.2929C3.51957 23.1054 3.26522 23 3 23Z" fill="#323232"/>
<path d="M43 12C43.2652 12 43.5196 11.8946 43.7071 11.7071C43.8947 11.5196 44 11.2652 44 11V7C44 6.73478 43.8947 6.48043 43.7071 6.29289C43.5196 6.10536 43.2652 6 43 6H23.609C23.4528 5.99996 23.2987 6.03652 23.1591 6.10677C23.0196 6.17701 22.8984 6.27898 22.8054 6.40449C22.7123 6.53 22.65 6.67557 22.6234 6.82952C22.5967 6.98347 22.6065 7.14152 22.652 7.291L28.266 25.735C28.3284 25.94 28.4549 26.1196 28.627 26.2472C28.7992 26.3749 29.0077 26.4438 29.222 26.444C29.304 26.4443 29.3856 26.4342 29.465 26.414L43.243 22.97C43.4593 22.9158 43.6512 22.791 43.7884 22.6152C43.9255 22.4395 44 22.2229 44 22V15C44 14.7348 43.8947 14.4804 43.7071 14.2929C43.5196 14.1054 43.2652 14 43 14C42.7348 14 42.4804 14.1054 42.2929 14.2929C42.1054 14.4804 42 14.7348 42 15V21.219L39.735 21.785C39.3877 21.2992 39.2007 20.7172 39.2 20.12C39.1987 19.7006 39.2906 19.2861 39.4693 18.9066C39.648 18.5271 39.9089 18.1922 40.233 17.926C40.3998 17.7852 40.5159 17.5937 40.5636 17.3808C40.6114 17.1678 40.5882 16.9451 40.4975 16.7466C40.4069 16.548 40.2538 16.3846 40.0616 16.2812C39.8694 16.1779 39.6486 16.1402 39.433 16.174C39.0257 16.2432 38.6083 16.223 38.2096 16.1146C37.8109 16.0063 37.4406 15.8125 37.1244 15.5466C36.8082 15.2807 36.5537 14.9492 36.3785 14.5751C36.2033 14.2009 36.1117 13.7931 36.11 13.38C36.1119 13.0832 36.1578 12.7884 36.246 12.505C36.3107 12.2958 36.3049 12.0712 36.2295 11.8656C36.1542 11.66 36.0134 11.4849 35.8289 11.367C35.6444 11.2491 35.4263 11.1951 35.2081 11.2131C34.9899 11.2312 34.7836 11.3204 34.621 11.467C34.2597 11.793 33.8209 12.021 33.3465 12.1292C32.872 12.2374 32.3778 12.2222 31.9109 12.0851C31.4439 11.948 31.0199 11.6936 30.6793 11.3461C30.3387 10.9986 30.0927 10.5696 29.965 10.1C29.9079 9.88774 29.7824 9.70022 29.6079 9.56646C29.4335 9.43269 29.2198 9.36013 29 9.36V9.36C28.7801 9.36019 28.5663 9.4329 28.3919 9.56686C28.2174 9.70081 28.092 9.88855 28.035 10.101C27.9155 10.5539 27.684 10.9694 27.3618 11.3093C27.0395 11.6492 26.6369 11.9026 26.191 12.046L24.958 8H42V11C42 11.2652 42.1054 11.5196 42.2929 11.7071C42.4804 11.8946 42.7348 12 43 12ZM33.943 23.229L29.9 24.239L28.421 19.379C28.56 19.2803 28.6917 19.1717 28.815 19.054C29.2278 19.4468 29.7283 19.7355 30.275 19.896C30.8235 20.059 31.4034 20.0868 31.965 19.977C32.1422 20.7131 32.55 21.3732 33.129 21.861C33.4246 22.1119 33.7598 22.312 34.121 22.453C34.0324 22.7041 33.9726 22.9644 33.943 23.229V23.229ZM29 12.476C29.6166 13.2036 30.4329 13.7346 31.3481 14.0031C32.2632 14.2717 33.237 14.2661 34.149 13.987C34.2723 14.9343 34.6723 15.8241 35.299 16.5451C35.9257 17.266 36.7511 17.786 37.672 18.04C37.3619 18.6895 37.201 19.4002 37.201 20.12C37.2014 20.872 37.3749 21.6138 37.708 22.288L36.275 22.646C36.3399 22.5642 36.4122 22.4885 36.491 22.42C36.657 22.2779 36.7719 22.0853 36.8181 21.8718C36.8643 21.6582 36.8392 21.4354 36.7468 21.2374C36.6544 21.0394 36.4997 20.8771 36.3063 20.7754C36.1129 20.6736 35.8915 20.638 35.676 20.674C35.4551 20.7142 35.228 20.7047 35.0112 20.646C34.7945 20.5874 34.5935 20.4811 34.423 20.335C34.251 20.1912 34.1124 20.0115 34.0171 19.8086C33.9217 19.6056 33.8719 19.3842 33.871 19.16C33.8726 18.9955 33.8982 18.8321 33.947 18.675C34.0117 18.4655 34.0057 18.2406 33.93 18.0348C33.8542 17.829 33.713 17.6539 33.528 17.5362C33.343 17.4186 33.1244 17.365 32.906 17.3838C32.6875 17.4025 32.4813 17.4926 32.319 17.64C32.1229 17.8175 31.8846 17.9418 31.6268 18.0011C31.369 18.0603 31.1003 18.0525 30.8464 17.9784C30.5925 17.9043 30.3618 17.7663 30.1763 17.5777C29.9909 17.3891 29.8568 17.1561 29.787 16.901C29.7302 16.6892 29.6054 16.502 29.4318 16.3681C29.2581 16.2342 29.0453 16.1611 28.826 16.16V16.16C28.6074 16.1599 28.3948 16.2314 28.2207 16.3636C28.0466 16.4958 27.9206 16.6814 27.862 16.892C27.8337 16.9849 27.7969 17.0749 27.752 17.161L26.78 13.961C27.645 13.6847 28.4144 13.17 29 12.476V12.476Z" fill="#323232"/>
<path d="M11 8C11.2652 8 11.5196 7.89464 11.7071 7.70711C11.8946 7.51957 12 7.26522 12 7C12 6.73478 11.8946 6.48043 11.7071 6.29289C11.5196 6.10536 11.2652 6 11 6H7C6.73478 6 6.48043 6.10536 6.29289 6.29289C6.10536 6.48043 6 6.73478 6 7V31C6 31.152 6.03466 31.302 6.10134 31.4386C6.16801 31.5752 6.26495 31.6948 6.38479 31.7883C6.50462 31.8818 6.6442 31.9468 6.79291 31.9783C6.94162 32.0098 7.09555 32.0069 7.243 31.97L25.748 27.344C25.8794 27.311 26.0027 27.2516 26.1104 27.1695C26.2182 27.0874 26.3081 26.9843 26.3748 26.8663C26.4415 26.7484 26.4835 26.6182 26.4983 26.4835C26.5131 26.3489 26.5004 26.2126 26.461 26.083L20.561 6.709C20.4988 6.50464 20.3729 6.32556 20.2016 6.19797C20.0303 6.07039 19.8226 6.00101 19.609 6H15C14.7348 6 14.4804 6.10536 14.2929 6.29289C14.1054 6.48043 14 6.73478 14 7C14 7.26522 14.1054 7.51957 14.2929 7.70711C14.4804 7.89464 14.7348 8 15 8H18.868L19.992 11.694C19.7248 12.0166 19.3899 12.2767 19.0112 12.4557C18.6324 12.6347 18.2189 12.7283 17.8 12.73C17.1011 12.7337 16.4267 12.4729 15.912 12C15.7494 11.8525 15.5427 11.7626 15.3239 11.7442C15.1051 11.7258 14.8863 11.78 14.7013 11.8983C14.5164 12.0166 14.3755 12.1925 14.3004 12.3988C14.2253 12.6052 14.2203 12.8305 14.286 13.04C14.4305 13.5031 14.4545 13.9953 14.3558 14.4702C14.2571 14.9451 14.0389 15.387 13.7219 15.7542C13.4049 16.1213 12.9995 16.4016 12.5441 16.5685C12.0886 16.7354 11.5982 16.7834 11.119 16.708C10.9017 16.6685 10.6775 16.7021 10.4813 16.8035C10.2851 16.9049 10.128 17.0684 10.0344 17.2684C9.94092 17.4685 9.91625 17.6939 9.96429 17.9094C10.0123 18.125 10.1304 18.3186 10.3 18.46C10.674 18.7708 10.9621 19.1722 11.1368 19.626C11.3116 20.0797 11.3672 20.5707 11.2983 21.052C11.2294 21.5334 11.0383 21.9891 10.7433 22.3756C10.4483 22.7621 10.0591 23.0666 9.613 23.26C9.41124 23.3468 9.24369 23.4977 9.13623 23.6893C9.02876 23.8809 8.98737 24.1025 9.01843 24.3199C9.0495 24.5374 9.15129 24.7386 9.3081 24.8924C9.4649 25.0462 9.66799 25.1441 9.886 25.171C10.5766 25.2591 11.2114 25.5958 11.6716 26.1182C12.1318 26.6406 12.3858 27.3128 12.386 28.009C12.3831 28.2222 12.3552 28.4343 12.303 28.641L8 29.719V8H11ZM19.8 26.77C19.5597 26.312 19.2246 25.9104 18.817 25.592C19.1644 25.1122 19.3901 24.5551 19.4746 23.9688C19.5591 23.3825 19.4998 22.7844 19.302 22.226C19.8535 22.0105 20.3445 21.6645 20.7329 21.2175C21.1213 20.7706 21.3955 20.2362 21.532 19.66C21.8283 19.7179 22.1306 19.7388 22.432 19.722L24.239 25.659L19.8 26.77ZM12.1 23.881C12.7358 23.1681 13.1475 22.2837 13.2835 21.3383C13.4196 20.3928 13.274 19.4282 12.865 18.565C13.9147 18.2713 14.8357 17.6344 15.481 16.756C15.966 16.0981 16.2757 15.3276 16.381 14.517C16.8404 14.6583 17.3184 14.7301 17.799 14.73C18.8169 14.7281 19.8092 14.4105 20.639 13.821L21.809 17.666C21.5731 17.6011 21.3563 17.4804 21.177 17.314C21.015 17.1644 20.8081 17.0725 20.5884 17.0527C20.3688 17.0328 20.1487 17.0861 19.9626 17.2043C19.7764 17.3225 19.6345 17.499 19.559 17.7062C19.4834 17.9134 19.4785 18.1397 19.545 18.35C19.6228 18.5938 19.6416 18.8526 19.5996 19.1051C19.5577 19.3575 19.4564 19.5964 19.304 19.802C19.136 20.0475 18.9005 20.2392 18.6261 20.354C18.3516 20.4688 18.0498 20.5018 17.757 20.449C17.538 20.4048 17.3105 20.4353 17.1109 20.5354C16.9112 20.6356 16.7508 20.7998 16.6553 21.0017C16.5598 21.2037 16.5346 21.4318 16.5839 21.6497C16.6331 21.8676 16.7539 22.0627 16.927 22.204C17.1392 22.3817 17.3026 22.6105 17.4016 22.869C17.5006 23.1274 17.532 23.4068 17.4929 23.6808C17.4537 23.9548 17.3453 24.2142 17.1779 24.4346C17.0104 24.6549 16.7895 24.8289 16.536 24.94C16.3334 25.026 16.1648 25.1765 16.0564 25.3681C15.9481 25.5597 15.9059 25.7817 15.9366 25.9997C15.9672 26.2177 16.069 26.4195 16.226 26.5737C16.383 26.728 16.5865 26.8262 16.805 26.853C17.1511 26.8954 17.4746 27.0475 17.728 27.287L14.378 28.125C14.378 28.086 14.389 28.048 14.389 28.01C14.3892 27.1841 14.1792 26.3717 13.7788 25.6493C13.3783 24.9269 12.8006 24.3184 12.1 23.881V23.881Z" fill="#323232"/>
<path d="M10 45C10.5523 45 11 44.5523 11 44C11 43.4477 10.5523 43 10 43C9.44772 43 9 43.4477 9 44C9 44.5523 9.44772 45 10 45Z" fill="#323232"/>
<path d="M61.7 5.291C61.3613 4.36218 60.7548 3.55461 59.9573 2.97038C59.1597 2.38616 58.2068 2.05149 57.2191 2.00868C56.2314 1.96587 55.2531 2.21684 54.408 2.72987C53.5629 3.2429 52.8888 3.99496 52.471 4.891L48 14.469V3C48 2.73478 47.8946 2.48043 47.7071 2.29289C47.5196 2.10536 47.2652 2 47 2H3C2.73478 2 2.48043 2.10536 2.29289 2.29289C2.10536 2.48043 2 2.73478 2 3V20C2 20.2652 2.10536 20.5196 2.29289 20.7071C2.48043 20.8946 2.73478 21 3 21C3.26522 21 3.51957 20.8946 3.70711 20.7071C3.89464 20.5196 4 20.2652 4 20V4H46V18.758L42.589 26.072L6.757 35.03C6.54075 35.0842 6.34881 35.209 6.21166 35.3848C6.0745 35.5605 6.00001 35.7771 6 36V41.008C5.959 41.039 5.915 41.065 5.874 41.098C5.27883 41.5727 4.80045 42.1775 4.47566 42.866C4.15086 43.5545 3.98829 44.3083 4.00046 45.0695C4.01263 45.8306 4.19921 46.5789 4.54585 47.2566C4.89249 47.9344 5.38996 48.5236 6 48.979V57C6 57.2652 6.10536 57.5196 6.29289 57.7071C6.48043 57.8946 6.73478 58 7 58H43C43.2652 58 43.5196 57.8946 43.7071 57.7071C43.8946 57.5196 44 57.2652 44 57V40.641L48.6 36.635C48.7052 36.5433 48.79 36.4305 48.849 36.304L53.8 25.692C53.8555 25.573 53.887 25.4442 53.8927 25.3129C53.8984 25.1817 53.8782 25.0507 53.8332 24.9273C53.7883 24.8039 53.7195 24.6905 53.6307 24.5937C53.542 24.4969 53.435 24.4185 53.316 24.363C53.197 24.3075 53.0681 24.276 52.9369 24.2703C52.8057 24.2646 52.6747 24.2848 52.5513 24.3298C52.4279 24.3747 52.3145 24.4435 52.2177 24.5323C52.1209 24.621 52.0425 24.728 51.987 24.847L47.462 34.547L45.649 33.702L56.638 10.142L58.45 10.988L53.678 21.222C53.6185 21.3415 53.5835 21.4717 53.5751 21.6049C53.5667 21.7381 53.5851 21.8717 53.6292 21.9977C53.6732 22.1237 53.742 22.2396 53.8316 22.3386C53.9211 22.4376 54.0295 22.5176 54.1505 22.574C54.2715 22.6305 54.4025 22.6621 54.5359 22.667C54.6693 22.672 54.8023 22.6502 54.9272 22.603C55.052 22.5557 55.1661 22.484 55.2628 22.3919C55.3595 22.2999 55.4367 22.1894 55.49 22.067L61.53 9.114C61.8099 8.51973 61.9691 7.8758 61.9983 7.21954C62.0275 6.56329 61.9261 5.90777 61.7 5.291V5.291ZM55.973 4.183C56.5305 3.98022 57.1355 3.94725 57.7117 4.08826C58.2879 4.22927 58.8093 4.53793 59.2102 4.97523C59.611 5.41254 59.8731 5.95884 59.9635 6.54511C60.0539 7.13138 59.9685 7.73128 59.718 8.269L59.295 9.175L53.858 6.639L54.28 5.733C54.4456 5.37546 54.6805 5.05434 54.9711 4.78827C55.2617 4.5222 55.6023 4.31647 55.973 4.183V4.183ZM41.588 38.433L42.827 39.011L41.558 40.111L41.588 38.433ZM41.628 36.244L41.667 34.057L43.9 35.1L46.13 36.14L44.48 37.577L41.628 36.244ZM42.028 32.016L53.013 8.452L54.825 9.297L43.837 32.861L42.028 32.016ZM8 36.781L41.5 28.405L39.788 32.077C39.7296 32.2025 39.6977 32.3386 39.694 32.477L39.672 33.703L38.831 32.441C38.7178 32.2714 38.5554 32.1404 38.3656 32.0657C38.1759 31.991 37.9678 31.9761 37.7693 32.023C37.5708 32.0699 37.3914 32.1763 37.2552 32.3281C37.1189 32.4798 37.0323 32.6696 37.007 32.872L36.19 39.403L28.485 35.122C28.3027 35.0206 28.0932 34.9788 27.886 35.0024C27.6787 35.0261 27.484 35.1139 27.3291 35.2537C27.1743 35.3934 27.067 35.5781 27.0223 35.7819C26.9776 35.9856 26.9978 36.1983 27.08 36.39L29.2 41.347L19.312 38.047C19.1022 37.9773 18.8753 37.979 18.6666 38.0519C18.4579 38.1248 18.2793 38.2649 18.1586 38.4501C18.0379 38.6353 17.982 38.8553 17.9997 39.0756C18.0173 39.296 18.1074 39.5043 18.256 39.668L23.1 45C23.1878 45.0993 23.2944 45.1802 23.4137 45.2379C23.533 45.2956 23.6626 45.3291 23.795 45.3363C23.9273 45.3435 24.0598 45.3243 24.1847 45.2798C24.3095 45.2354 24.4243 45.1665 24.5223 45.0773C24.6204 44.9881 24.6997 44.8803 24.7557 44.7602C24.8117 44.64 24.8432 44.51 24.8485 44.3775C24.8538 44.2451 24.8326 44.1129 24.7864 43.9887C24.7401 43.8645 24.6696 43.7507 24.579 43.654L22.31 41.154L30.68 43.943C30.8628 44.0038 31.0593 44.0105 31.2458 43.9622C31.4323 43.914 31.6009 43.813 31.7313 43.6712C31.8618 43.5295 31.9485 43.3531 31.9811 43.1632C32.0137 42.9734 31.9907 42.7781 31.915 42.601L30.071 38.3L36.514 41.879C36.657 41.9585 36.8173 42.0016 36.9809 42.0047C37.1445 42.0078 37.3063 41.9707 37.4522 41.8966C37.5981 41.8226 37.7237 41.7139 37.8178 41.5801C37.9119 41.4462 37.9717 41.2913 37.992 41.129L38.659 35.796L39.61 37.222L39.517 42.333C39.5141 42.5932 39.6127 42.8443 39.792 43.033C39.6999 43.0519 39.611 43.0839 39.528 43.128C39.3699 43.2126 39.2374 43.3383 39.1445 43.4917C39.0517 43.6451 39.0017 43.8207 39 44V46L36.6 44.2C36.4295 44.072 36.2226 44.0019 36.0095 43.9998C35.7963 43.9977 35.5881 44.0638 35.4151 44.1884C35.2422 44.313 35.1136 44.4896 35.0481 44.6925C34.9826 44.8953 34.9836 45.1138 35.051 45.316L36.224 48.833L31.496 46.133C31.3004 46.0213 31.0728 45.9789 30.8501 46.0127C30.6275 46.0465 30.4227 46.1544 30.269 46.3191C30.1153 46.4838 30.0218 46.6955 30.0034 46.92C29.9851 47.1445 30.0431 47.3686 30.168 47.556L33.34 52.314L29.8 53.02C29.6111 53.0585 29.4374 53.1508 29.2998 53.2857C29.1621 53.4207 29.0664 53.5925 29.0241 53.7806C28.9819 53.9687 28.9948 54.1649 29.0615 54.3458C29.1282 54.5267 29.2458 54.6844 29.4 54.8L31 56H25.435L22.18 52.513L29.213 50.977C29.3845 50.9397 29.5432 50.8578 29.6731 50.7397C29.8029 50.6216 29.8994 50.4714 29.9529 50.3041C30.0063 50.1369 30.0147 49.9586 29.9773 49.7871C29.94 49.6155 29.8581 49.4569 29.74 49.327L27.277 46.618C27.1886 46.5208 27.082 46.442 26.9631 46.386C26.8443 46.3301 26.7156 46.2981 26.5844 46.2919C26.4532 46.2856 26.322 46.3053 26.1984 46.3498C26.0748 46.3942 25.9612 46.4626 25.864 46.551C25.7668 46.6394 25.688 46.746 25.632 46.8649C25.5761 46.9837 25.5441 47.1124 25.5379 47.2436C25.5316 47.3748 25.5513 47.506 25.5958 47.6296C25.6402 47.7532 25.7086 47.8668 25.797 47.964L27.097 49.393L20.038 50.934C19.8655 50.9717 19.7061 51.0543 19.5759 51.1736C19.4457 51.2928 19.3494 51.4444 19.2968 51.6129C19.2442 51.7815 19.2371 51.9609 19.2763 52.1331C19.3155 52.3052 19.3996 52.4639 19.52 52.593L22.7 56H15V52.233L19.786 46.763C20.2052 46.2854 20.4324 45.6693 20.4237 45.0339C20.415 44.3984 20.171 43.7888 19.7389 43.3228C19.3067 42.8569 18.7172 42.5677 18.0842 42.5112C17.4512 42.4547 16.8198 42.6349 16.312 43.017L14 44.754C13.9822 44.4032 13.9289 44.0551 13.841 43.715C13.6114 42.8357 13.145 42.0361 12.4927 41.4033C11.8403 40.7705 11.0269 40.3287 10.141 40.126C9.43649 39.97 8.70704 39.9638 8 40.108V36.781ZM8 56V48.445C7.99964 48.2698 7.95327 48.0978 7.86552 47.9461C7.77777 47.7945 7.65172 47.6686 7.5 47.581C7.07493 47.3339 6.71727 46.9859 6.45861 46.5677C6.19995 46.1496 6.04825 45.6741 6.01692 45.1834C5.98559 44.6928 6.07559 44.2019 6.27897 43.7542C6.48234 43.3066 6.79284 42.9159 7.18302 42.6167C7.57321 42.3175 8.03107 42.1191 8.51616 42.0388C9.00126 41.9586 9.49865 41.999 9.9644 42.1566C10.4302 42.3142 10.8499 42.584 11.1866 42.9423C11.5233 43.3006 11.7666 43.7364 11.895 44.211C12.0095 44.6379 12.0282 45.0847 11.9499 45.5197C11.8716 45.9546 11.6982 46.3669 11.442 46.727C11.306 46.9219 11.2439 47.1588 11.2668 47.3954C11.2897 47.6319 11.396 47.8525 11.5668 48.0178C11.7376 48.183 11.9616 48.2821 12.1988 48.2971C12.4359 48.3122 12.6707 48.2423 12.861 48.1L17.512 44.612C17.6246 44.5281 17.7642 44.4889 17.904 44.5017C18.0438 44.5146 18.1739 44.5786 18.2693 44.6816C18.3647 44.7846 18.4187 44.9192 18.4208 45.0596C18.423 45.1999 18.3732 45.3361 18.281 45.442L13.248 51.2C13.0884 51.3821 13.0003 51.6159 13 51.858V56H8ZM34.333 56L32.389 54.542L35.2 53.98C35.361 53.9478 35.5117 53.8764 35.6386 53.7721C35.7655 53.6679 35.8647 53.5339 35.9276 53.3822C35.9905 53.2305 36.015 53.0656 35.999 52.9021C35.9831 52.7387 35.9271 52.5817 35.836 52.445L34.186 49.97L37.508 51.87C37.6838 51.9705 37.8859 52.0152 38.0877 51.9983C38.2895 51.9814 38.4813 51.9036 38.638 51.7753C38.7946 51.647 38.9085 51.4741 38.9648 51.2796C39.021 51.0851 39.0169 50.8781 38.953 50.686L37.965 47.723L39.4 48.8C39.5486 48.9114 39.7252 48.9793 39.9102 48.996C40.0952 49.0126 40.2811 48.9775 40.4472 48.8944C40.6133 48.8114 40.753 48.6837 40.8507 48.5257C40.9483 48.3678 41 48.1857 41 48V45.868L42 46.535V56H34.333ZM42 44.132L40.758 43.3C40.9104 43.2667 41.0528 43.1982 41.174 43.1L42 42.382V44.132Z" fill="#323232"/>
</svg>
