<?xml version="1.0" encoding="UTF-8" standalone="no"?> <svg id="icon" xmlns="http://www.w3.org/2000/svg" viewBox="0 0 340 340"><path d="M169.522,300.408c6.132-71.922,9.628-139.643,0-186.438,0,0-75.543-38.014-153.33-2.725a9.812,9.812,0,0,0-5.714,8.95V300.408Z" style="fill:#bac7e5"/><path d="M169.522,300.408c4.806-78.156,9.409-159.969,16.7-193.06,26.728-9.034,81.8-21.395,137.584,3.9a9.814,9.814,0,0,1,5.715,8.951V300.408Z" style="fill:#fff"/><path d="M186.223,107.349a147.159,147.159,0,0,0-16.7,6.621V300.408h16.7Z" style="fill:#bac7e5"/><path d="M160.691,296.6c-22.8-8.928-86.357-28.133-150.213,3.81V329.94c72.871-20.688,129.92-8.668,150.624-2.723a30.692,30.692,0,0,0,16.858.025c20.877-5.935,78.585-18.02,151.562,2.7V300.408c-63.934-31.982-128.178-12.691-151.154-3.777A24.322,24.322,0,0,1,160.691,296.6Z" style="fill:#7988b7"/><path d="M158.4,285.105c-15.579-18.268-48.416-47.347-104.038-55.23a11.119,11.119,0,0,1-9.608-10.985V51.713A8.264,8.264,0,0,1,53.961,43.5c86,10.117,115.561,70.472,115.561,70.472V280.983A6.321,6.321,0,0,1,158.4,285.105Z" style="fill:#fff"/><path d="M80.992,182.723a83.507,83.507,0,0,1,22.8,11.032V166.606a81.236,81.236,0,0,0-22.8-11.162Z" style="fill:#bac7e5"/><path d="M275.474,66.668H223L205.558,197.341a16.889,16.889,0,0,0,9.24,17.395c14.78,7.281,34.441,7.5,34.441,7.5s19.66-.218,34.44-7.5a16.889,16.889,0,0,0,9.24-17.395Z" style="fill:#ffbe71"/><path d="M290.625,43.749H207.852a218.732,218.732,0,0,0-27.458,9.29,7.24,7.24,0,0,0,.108,13.389c12.5,5.018,34.452,10.883,68.737,10.883s56.232-5.865,68.736-10.883a7.24,7.24,0,0,0,.108-13.389A218.732,218.732,0,0,0,290.625,43.749Z" style="fill:#7aa8ea"/><path d="M249.239,9.94c-33.769,0-41.387,33.809-41.387,33.809,12.95,8.759,41.387,8.734,41.387,8.734s28.436.025,41.386-8.734C290.625,43.749,283.007,9.94,249.239,9.94Z" style="fill:#dce5ff"/><circle cx="204.131" cy="58.689" r="3.721" style="fill:#fff"/><circle cx="249.239" cy="64.251" r="3.721" style="fill:#fff"/><circle cx="294.346" cy="58.689" r="3.721" style="fill:#fff"/><path d="M227.982,38.464c7.58-.678,16.594-3.578,22.235-12.483a3.738,3.738,0,0,0-2.755-5.683A23.14,23.14,0,0,0,224.3,33,3.766,3.766,0,0,0,227.982,38.464Z" style="fill:#fff"/><ellipse cx="249.239" cy="199.244" rx="32.569" ry="11.304" style="fill:#e87b31"/><path d="M105.871,163.787c-10.742-7.9-23.394-11.538-23.921-11.709a3.352,3.352,0,0,0-4.458,3.366v27.279a3.5,3.5,0,0,0,2.5,3.355,81.466,81.466,0,0,1,21.738,10.5c3.006,1.558,5.561-.512,5.561-2.828V166.606A3.5,3.5,0,0,0,105.871,163.787Zm-5.575,23.6a87.925,87.925,0,0,0-15.8-7.222V160.337a76.482,76.482,0,0,1,15.8,8.075Z" style="fill:#3c3c4f"/><path d="M80.219,83.788c1.088.246,3.838.91,4.134.91,3.991.05,4.814-5.888.889-6.885C82.509,77,78.521,75.8,77.579,79.6A3.5,3.5,0,0,0,80.219,83.788Z" style="fill:#3c3c4f"/><path d="M104.236,92.446c22.528,9.993,38.595,27.354,38.754,27.527,2.85,2.641,8.423-.563,5.164-4.725-.689-.754-17.169-18.594-41.079-29.2C102.9,84.217,100.05,90.565,104.236,92.446Z" style="fill:#3c3c4f"/><path d="M80.219,109.642c35.23,7.981,62.544,35.988,62.833,36.252,4.13,3.436,7.735-1.943,5.04-4.858-1.166-1.211-29.009-29.767-66.326-38.221C77.282,101.879,75.732,108.54,80.219,109.642Z" style="fill:#3c3c4f"/><path d="M80.219,135.5c35.23,7.981,62.561,35.97,62.833,36.252a3.99,3.99,0,0,0,4.948.09,3.421,3.421,0,0,0,.092-4.948c-1.166-1.211-29.009-29.767-66.326-38.221a3.5,3.5,0,1,0-1.547,6.827Z" style="fill:#3c3c4f"/><path d="M122.73,172.505c-4-2.2-7.4,3.87-3.4,6.118,12.46,6.928,23.568,18.813,23.678,18.932.69.743,3.26,1.675,4.946.184a3.47,3.47,0,0,0,.186-4.945C147.656,192.275,136.184,179.986,122.73,172.505Z" style="fill:#3c3c4f"/><path d="M147.952,223.594a3.488,3.488,0,0,0,.186-4.945c-.482-.519-11.954-12.808-25.409-20.289a3.5,3.5,0,0,0-3.4,6.118c12.46,6.928,23.568,18.813,23.678,18.932C143.7,224.153,146.315,225.085,147.952,223.594Z" style="fill:#3c3c4f"/><path d="M331.105,110.847a166.618,166.618,0,0,0-23.268-9.516,3.5,3.5,0,1,0-2.131,6.674,159.443,159.443,0,0,1,20.316,8.143V294.861c-56.72-25.19-111-16.435-153,.142v-178.8a179.866,179.866,0,0,1,21.243-7.732,3.665,3.665,0,0,0,2.646-2.978,3.517,3.517,0,0,0-4.494-3.8,184.787,184.787,0,0,0-21.4,7.73C146.632,72.492,110.964,45.365,45.007,39.136a3.485,3.485,0,0,0-3.753,3.492v56c-5.922,1.635-20.582,6.013-32.444,12.261a3.47,3.47,0,0,0-1.832,3.077V329.816a3.586,3.586,0,0,0,4.456,3.491c86.527-24.22,145.254-3.147,158.065-.1,12.952-2.916,72.478-24.2,159.067.1,2.867.533,4.456-.931,4.456-3.469V113.969A3.493,3.493,0,0,0,331.105,110.847ZM13.978,116.112a174.639,174.639,0,0,1,27.276-10.2v122.84a3.5,3.5,0,0,0,3.249,3.491c61.3,6.276,90.942,27.763,116.473,60.7-43.463-15.263-90.383-22.42-147,1.919ZM166.022,325.038c-44.024-12.282-88.592-15.48-152.044.305v-7.486c67.98-29.651,141.1-4.207,152.044-.072Zm0-14.728c-40.945-14.009-97.511-22.174-152.044-.068v-7.656c54.679-26.458,113.444-16.715,152.044.048Zm0-22.4c-4.548-6.351-36.4-56.488-117.768-62.39V46.424c59.8,5.692,98.087,35.322,117.768,68.407Zm160,37.433c-49.289-15.35-120.8-11.326-153-.287v-7.189c10.3-3.885,84.571-29.854,153-.01Zm0-15.1c-54.437-22.179-112.194-13.839-153,.152v-7.748c12.5-5.553,83.087-33.867,153-.061Z" style="fill:#3c3c4f"/><path d="M179.2,69.676c8.355,3.353,20.969,7.129,38.629,9.311L202.089,196.878a20.366,20.366,0,0,0,11.163,21c25.761,10.552,46.17,10.569,71.974,0a20.371,20.371,0,0,0,11.162-21L280.65,78.986c17.66-2.181,30.274-5.957,38.629-9.31a10.739,10.739,0,0,0,.156-19.865,224.032,224.032,0,0,0-26-8.936c-13.188-45.8-75.3-45.645-88.4,0a224.032,224.032,0,0,0-26,8.936,10.739,10.739,0,0,0,.156,19.865ZM289.45,197.8c3.954,19.823-39.7,20.914-40.172,20.932-.712-.118-44.075-.981-40.251-20.932l15.762-118.07a281.773,281.773,0,0,0,48.9,0ZM249.238,13.44c25.809,0,34.925,21.361,37.291,28.688-21.648,9.275-52.884,9.3-74.561.01C214.389,34.865,223.691,13.44,249.238,13.44ZM181.745,56.268a219.738,219.738,0,0,1,25.533-8.745c23.047,11.434,60.81,11.461,83.922,0a219.259,219.259,0,0,1,25.531,8.745,3.653,3.653,0,0,1,2.282,3.467c-.849,7.923-42.3,14.23-69.774,14.076C224.4,74.363,167.267,66.447,181.745,56.268Z" style="fill:#3c3c4f"/></svg>