<?xml version="1.0" encoding="UTF-8" standalone="no"?> <svg width="64" height="64" viewBox="0 0 64 64" fill="none" xmlns="http://www.w3.org/2000/svg">
<path d="M57 36V45C57 46.0609 56.5786 47.0783 55.8284 47.8284C55.0783 48.5786 54.0609 49 53 49H11C9.93913 49 8.92172 48.5786 8.17157 47.8284C7.42143 47.0783 7 46.0609 7 45V17C7 15.9391 7.42143 14.9217 8.17157 14.1716C8.92172 13.4214 9.93913 13 11 13H19V15C19 20.5695 21.2125 25.911 25.1508 29.8492C29.089 33.7875 34.4305 36 40 36H57Z" fill="#CFF09E"/>
<path d="M15 57H49C50.0609 57 51.0783 57.4214 51.8284 58.1716C52.5786 58.9217 53 59.9391 53 61H11C11 59.9391 11.4214 58.9217 12.1716 58.1716C12.9217 57.4214 13.9391 57 15 57V57Z" fill="#79BD9A"/>
<path d="M23 49C23 50.2304 22.6962 51.4418 22.1157 52.5267C21.5351 53.6116 20.6957 54.5364 19.672 55.219L17 57H47L44.328 55.219C43.3043 54.5364 42.4649 53.6116 41.8843 52.5267C41.3038 51.4418 41 50.2304 41 49H23Z" fill="#79BD9A"/>
<path d="M7 45H57C57 46.0609 56.5786 47.0783 55.8284 47.8284C55.0783 48.5786 54.0609 49 53 49H11C9.93913 49 8.92172 48.5786 8.17157 47.8284C7.42143 47.0783 7 46.0609 7 45Z" fill="#79BD9A"/>
<path d="M20.586 40.828L14.586 34.828C14.2111 34.4529 14.0004 33.9443 14.0004 33.414C14.0004 32.8837 14.2111 32.3751 14.586 32L20.586 26L23.414 28.828L18.828 33.414L23.414 38L20.586 40.828Z" fill="#A8DBA8"/>
<path d="M33.2112 26.5202L27.2114 38.5199L30.7891 40.3087L36.7889 28.3091L33.2112 26.5202Z" fill="#A8DBA8"/>
<path d="M43.414 40.828L40.586 38L45.172 33.414L40.586 28.828L43.414 26L49.414 32C49.7889 32.3751 49.9996 32.8837 49.9996 33.414C49.9996 33.9443 49.7889 34.4529 49.414 34.828L43.414 40.828Z" fill="#A8DBA8"/>
<path d="M41 21C35.0723 22.3169 28.9277 22.3169 23 21V21V8H41V21Z" fill="#79BD9A"/>
<path d="M32 13L19 8L32 3L45 8L32 13Z" fill="#79BD9A"/>
<path d="M17 20C18.1046 20 19 19.1046 19 18C19 16.8954 18.1046 16 17 16C15.8954 16 15 16.8954 15 18C15 19.1046 15.8954 20 17 20Z" fill="#79BD9A"/>
<path d="M53 12H42V10.226L45.359 8.934C45.5481 8.86167 45.7108 8.73366 45.8255 8.56689C45.9403 8.40012 46.0017 8.20244 46.0017 8C46.0017 7.79755 45.9403 7.59988 45.8255 7.43311C45.7108 7.26634 45.5481 7.13832 45.359 7.066L32.359 2.066C32.1276 1.97898 31.8724 1.97898 31.641 2.066L18.641 7.066C18.4522 7.1386 18.2899 7.26673 18.1755 7.43348C18.0611 7.60023 17.9999 7.79776 18 8V12H11C9.6744 12.0016 8.40356 12.5289 7.46622 13.4662C6.52888 14.4036 6.00159 15.6744 6 17V45C6.00159 46.3256 6.52888 47.5964 7.46622 48.5338C8.40356 49.4711 9.6744 49.9984 11 50H21.914C21.7773 50.8855 21.4578 51.7329 20.9757 52.4882C20.4937 53.2435 19.8596 53.8901 19.114 54.387L16.7 56H15C13.6744 56.0016 12.4036 56.5289 11.4662 57.4662C10.5289 58.4036 10.0016 59.6744 10 61C10 61.2652 10.1054 61.5196 10.2929 61.7071C10.4804 61.8946 10.7348 62 11 62H53C53.2652 62 53.5196 61.8946 53.7071 61.7071C53.8946 61.5196 54 61.2652 54 61C53.9984 59.6744 53.4711 58.4036 52.5338 57.4662C51.5964 56.5289 50.3256 56.0016 49 56H47.3L44.88 54.387C44.1355 53.8895 43.5026 53.2426 43.0216 52.4874C42.5406 51.7321 42.222 50.885 42.086 50H53C54.3256 49.9984 55.5964 49.4711 56.5338 48.5338C57.4711 47.5964 57.9984 46.3256 58 45V17C57.9984 15.6744 57.4711 14.4036 56.5338 13.4662C55.5964 12.5289 54.3256 12.0016 53 12V12ZM24 11L31.641 13.939C31.8722 14.027 32.1278 14.027 32.359 13.939L40 11V20.194C34.719 21.251 29.281 21.251 24 20.194V11ZM32 4.076L42.214 8L32 11.929L21.786 8L32 4.076ZM20 9.456L22 10.226V12H20V9.456ZM11 14H18V15.184C17.6797 15.0656 17.3414 15.0033 17 15C16.4067 15 15.8266 15.1759 15.3333 15.5056C14.8399 15.8352 14.4554 16.3038 14.2284 16.8519C14.0013 17.4001 13.9419 18.0033 14.0576 18.5853C14.1734 19.1672 14.4591 19.7018 14.8787 20.1213C15.2982 20.5409 15.8328 20.8266 16.4147 20.9424C16.9967 21.0581 17.5999 20.9987 18.1481 20.7716C18.6962 20.5446 19.1648 20.1601 19.4944 19.6667C19.8241 19.1734 20 18.5933 20 18V14H22V21C21.9998 21.2277 22.0773 21.4486 22.2197 21.6262C22.362 21.8038 22.5608 21.9276 22.783 21.977C25.8098 22.6445 28.9004 22.9799 32 22.977C35.0996 22.9799 38.1902 22.6445 41.217 21.977C41.4392 21.9276 41.638 21.8038 41.7803 21.6262C41.9227 21.4486 42.0002 21.2277 42 21V14H53C53.7956 14 54.5587 14.3161 55.1213 14.8787C55.6839 15.4413 56 16.2043 56 17V44H8V17C8 16.2043 8.31607 15.4413 8.87868 14.8787C9.44129 14.3161 10.2044 14 11 14V14ZM18 18C18 18.1978 17.9414 18.3911 17.8315 18.5556C17.7216 18.72 17.5654 18.8482 17.3827 18.9239C17.2 18.9996 16.9989 19.0194 16.8049 18.9808C16.6109 18.9422 16.4327 18.847 16.2929 18.7071C16.153 18.5673 16.0578 18.3891 16.0192 18.1951C15.9806 18.0011 16.0004 17.8 16.0761 17.6173C16.1518 17.4346 16.28 17.2784 16.4444 17.1685C16.6089 17.0586 16.8022 17 17 17C17.2652 17 17.5196 17.1054 17.7071 17.2929C17.8946 17.4804 18 17.7348 18 18ZM51.829 60H12.171C12.3786 59.4155 12.7619 58.9095 13.2684 58.5514C13.7749 58.1934 14.3797 58.0008 15 58H49C49.6203 58.0008 50.2251 58.1934 50.7316 58.5514C51.2381 58.9095 51.6214 59.4155 51.829 60ZM43.7 56H20.3C21.3009 55.3189 22.1438 54.4307 22.7716 53.3955C23.3994 52.3603 23.7975 51.2024 23.939 50H40.059C40.2007 51.2025 40.5991 52.3606 41.2273 53.3958C41.8555 54.431 42.6987 55.3191 43.7 56V56ZM53 48H11C10.3817 47.9974 9.77937 47.8039 9.2753 47.4459C8.77123 47.0879 8.39008 46.5829 8.184 46H55.816C55.6099 46.5829 55.2288 47.0879 54.7247 47.4459C54.2206 47.8039 53.6183 47.9974 53 48V48Z" fill="#3B8686"/>
<path d="M19.879 41.535C20.0665 41.7225 20.3208 41.8278 20.586 41.8278C20.8511 41.8278 21.1054 41.7225 21.293 41.535L24.121 38.707C24.3084 38.5195 24.4138 38.2652 24.4138 38C24.4138 37.7348 24.3084 37.4805 24.121 37.293L20.242 33.414L24.121 29.535C24.3084 29.3475 24.4138 29.0932 24.4138 28.828C24.4138 28.5628 24.3084 28.3085 24.121 28.121L21.293 25.293C21.1054 25.1055 20.8511 25.0002 20.586 25.0002C20.3208 25.0002 20.0665 25.1055 19.879 25.293L13.879 31.293C13.3166 31.8556 13.0006 32.6185 13.0006 33.414C13.0006 34.2095 13.3166 34.9724 13.879 35.535L19.879 41.535ZM15.293 32.707L20.586 27.414L22 28.828L18.121 32.707C17.9335 32.8945 17.8282 33.1488 17.8282 33.414C17.8282 33.6792 17.9335 33.9335 18.121 34.121L22 38L20.586 39.414L15.293 34.121C15.1055 33.9335 15.0002 33.6792 15.0002 33.414C15.0002 33.1488 15.1055 32.8945 15.293 32.707V32.707Z" fill="#3B8686"/>
<path d="M26.764 39.414L30.342 41.2C30.4595 41.2588 30.5873 41.2939 30.7184 41.3032C30.8494 41.3126 30.981 41.296 31.1056 41.2545C31.2302 41.213 31.3454 41.1473 31.4447 41.0613C31.5439 40.9752 31.6252 40.8705 31.684 40.753L37.684 28.753C37.7427 28.6355 37.7778 28.5075 37.7871 28.3765C37.7963 28.2454 37.7797 28.1138 37.7381 27.9892C37.6965 27.8645 37.6307 27.7493 37.5446 27.6501C37.4584 27.5509 37.3536 27.4697 37.236 27.411L33.658 25.622C33.5405 25.5632 33.4126 25.5281 33.2816 25.5188C33.1506 25.5094 33.019 25.526 32.8944 25.5675C32.7698 25.609 32.6545 25.6746 32.5553 25.7607C32.4561 25.8467 32.3747 25.9515 32.316 26.069L26.316 38.069C26.2568 38.1867 26.2214 38.3149 26.2118 38.4463C26.2023 38.5776 26.2188 38.7096 26.2605 38.8346C26.3021 38.9596 26.368 39.0751 26.4544 39.1745C26.5408 39.274 26.646 39.3553 26.764 39.414V39.414ZM33.658 27.861L35.447 28.756L30.342 38.967L28.553 38.072L33.658 27.861Z" fill="#3B8686"/>
<path d="M39.879 38.707L42.707 41.535C42.8945 41.7225 43.1488 41.8278 43.414 41.8278C43.6791 41.8278 43.9334 41.7225 44.121 41.535L50.121 35.535C50.6834 34.9724 50.9993 34.2095 50.9993 33.414C50.9993 32.6185 50.6834 31.8556 50.121 31.293L44.121 25.293C43.9334 25.1055 43.6791 25.0002 43.414 25.0002C43.1488 25.0002 42.8945 25.1055 42.707 25.293L39.879 28.121C39.6915 28.3085 39.5862 28.5628 39.5862 28.828C39.5862 29.0932 39.6915 29.3475 39.879 29.535L43.758 33.414L39.879 37.293C39.6915 37.4805 39.5862 37.7348 39.5862 38C39.5862 38.2652 39.6915 38.5195 39.879 38.707V38.707ZM45.879 34.121C46.0664 33.9335 46.1718 33.6792 46.1718 33.414C46.1718 33.1488 46.0664 32.8945 45.879 32.707L42 28.828L43.414 27.414L48.707 32.707C48.8944 32.8945 48.9998 33.1488 48.9998 33.414C48.9998 33.6792 48.8944 33.9335 48.707 34.121L43.414 39.414L42 38L45.879 34.121Z" fill="#3B8686"/>
<path d="M46 22C46.2652 22 46.5196 21.8946 46.7071 21.7071C46.8946 21.5196 47 21.2652 47 21V17C47 16.7348 46.8946 16.4804 46.7071 16.2929C46.5196 16.1054 46.2652 16 46 16C45.7348 16 45.4804 16.1054 45.2929 16.2929C45.1054 16.4804 45 16.7348 45 17V21C45 21.2652 45.1054 21.5196 45.2929 21.7071C45.4804 21.8946 45.7348 22 46 22Z" fill="#3B8686"/>
<path d="M11 22C11.2652 22 11.5196 21.8946 11.7071 21.7071C11.8946 21.5196 12 21.2652 12 21V17C12 16.7348 11.8946 16.4804 11.7071 16.2929C11.5196 16.1054 11.2652 16 11 16C10.7348 16 10.4804 16.1054 10.2929 16.2929C10.1054 16.4804 10 16.7348 10 17V21C10 21.2652 10.1054 21.5196 10.2929 21.7071C10.4804 21.8946 10.7348 22 11 22Z" fill="#3B8686"/>
<path d="M51 22C51.5933 22 52.1734 21.8241 52.6667 21.4944C53.1601 21.1648 53.5446 20.6962 53.7716 20.1481C53.9987 19.5999 54.0581 18.9967 53.9424 18.4147C53.8266 17.8328 53.5409 17.2982 53.1213 16.8787C52.7018 16.4591 52.1672 16.1734 51.5853 16.0576C51.0033 15.9419 50.4001 16.0013 49.852 16.2284C49.3038 16.4554 48.8352 16.8399 48.5056 17.3333C48.1759 17.8266 48 18.4067 48 19C48 19.7957 48.3161 20.5587 48.8787 21.1213C49.4413 21.6839 50.2044 22 51 22ZM51 18C51.1978 18 51.3911 18.0586 51.5556 18.1685C51.72 18.2784 51.8482 18.4346 51.9239 18.6173C51.9996 18.8 52.0194 19.0011 51.9808 19.1951C51.9422 19.3891 51.847 19.5673 51.7071 19.7071C51.5673 19.847 51.3891 19.9422 51.1951 19.9808C51.0011 20.0194 50.8 19.9996 50.6173 19.9239C50.4346 19.8482 50.2784 19.72 50.1685 19.5556C50.0586 19.3911 50 19.1978 50 19C50 18.7348 50.1054 18.4804 50.2929 18.2929C50.4804 18.1054 50.7348 18 51 18Z" fill="#3B8686"/>
</svg>
