<?xml version="1.0" encoding="UTF-8" standalone="no"?> <svg id="Layer_1" data-name="Layer 1" xmlns="http://www.w3.org/2000/svg" viewBox="0 0 64 64"><polygon points="37 62 37 57 50 57 50 55 33 55 33 22 31 22 31 55 14 55 14 57 27 57 27 62 37 62"/><path d="M54.6,62h4L56.79,48.417a2,2,0,0,0-1.59-1.7L46.6,45l-1.478-9.608A4,4,0,0,0,41.17,32H39a4,4,0,0,0-3.982,4.379l1.152,12.1A5,5,0,0,0,41.148,53H52.6Z"/><circle cx="39.601" cy="28" r="4"/><path d="M7.21,48.417,5.4,62h4l2-9H22.852a5,5,0,0,0,4.978-4.526l1.152-12.095A4,4,0,0,0,25,32H22.83a4,4,0,0,0-3.953,3.392L17.4,45,8.8,46.72A2,2,0,0,0,7.21,48.417Z"/><circle cx="24.399" cy="28" r="4"/><path d="M32,18a1.116,1.116,0,0,0,.808-.347l6.8-7.113a5.164,5.164,0,0,0,0-7.06,4.694,4.694,0,0,0-6.842,0l-.763.8-.763-.8a4.694,4.694,0,0,0-6.842,0,5.164,5.164,0,0,0,0,7.06l6.8,7.113A1.116,1.116,0,0,0,32,18Z"/></svg>